<mxfile host="65bd71144e">
    <diagram id="EXTartRGAg-ATGWINCAh" name="Page-1">
        <mxGraphModel dx="710" dy="1267" grid="1" gridSize="10" guides="1" tooltips="1" connect="1" arrows="1" fold="1" page="1" pageScale="1" pageWidth="1169" pageHeight="827" math="0" shadow="0">
            <root>
                <mxCell id="0"/>
                <mxCell id="1" parent="0"/>
                <mxCell id="7" value="" style="rounded=1;whiteSpace=wrap;html=1;gradientColor=default;fillColor=none;strokeWidth=4;" vertex="1" parent="1">
                    <mxGeometry x="160" y="-160" width="920" height="1200" as="geometry"/>
                </mxCell>
                <mxCell id="16" style="edgeStyle=orthogonalEdgeStyle;html=1;entryX=0;entryY=0.5;entryDx=0;entryDy=0;endArrow=block;endFill=0;fillColor=#fad9d5;strokeColor=#ae4132;" edge="1" parent="1" source="2" target="11">
                    <mxGeometry relative="1" as="geometry">
                        <Array as="points">
                            <mxPoint x="240" y="-80"/>
                            <mxPoint x="240" y="420"/>
                            <mxPoint x="400" y="420"/>
                        </Array>
                    </mxGeometry>
                </mxCell>
                <mxCell id="25" style="edgeStyle=orthogonalEdgeStyle;html=1;entryX=0;entryY=0.5;entryDx=0;entryDy=0;endArrow=block;endFill=0;fillColor=#fad9d5;strokeColor=#ae4132;" edge="1" parent="1" source="2" target="18">
                    <mxGeometry relative="1" as="geometry">
                        <Array as="points">
                            <mxPoint x="240" y="-80"/>
                            <mxPoint x="240" y="155"/>
                        </Array>
                    </mxGeometry>
                </mxCell>
                <mxCell id="26" style="edgeStyle=orthogonalEdgeStyle;html=1;entryX=0;entryY=0.5;entryDx=0;entryDy=0;endArrow=block;endFill=0;fillColor=#fad9d5;strokeColor=#ae4132;" edge="1" parent="1" source="2" target="12">
                    <mxGeometry relative="1" as="geometry">
                        <Array as="points">
                            <mxPoint x="240" y="-80"/>
                            <mxPoint x="240" y="95"/>
                        </Array>
                    </mxGeometry>
                </mxCell>
                <mxCell id="27" style="edgeStyle=orthogonalEdgeStyle;html=1;endArrow=block;endFill=0;fillColor=#fad9d5;strokeColor=#ae4132;" edge="1" parent="1" source="2" target="22">
                    <mxGeometry relative="1" as="geometry"/>
                </mxCell>
                <mxCell id="28" style="edgeStyle=orthogonalEdgeStyle;html=1;entryX=0;entryY=0.5;entryDx=0;entryDy=0;endArrow=block;endFill=0;fillColor=#fad9d5;strokeColor=#ae4132;" edge="1" parent="1" source="2" target="19">
                    <mxGeometry relative="1" as="geometry">
                        <Array as="points">
                            <mxPoint x="240" y="-80"/>
                            <mxPoint x="240" y="35"/>
                        </Array>
                    </mxGeometry>
                </mxCell>
                <mxCell id="29" style="edgeStyle=orthogonalEdgeStyle;html=1;entryX=0;entryY=0.5;entryDx=0;entryDy=0;endArrow=block;endFill=0;fillColor=#fad9d5;strokeColor=#ae4132;" edge="1" parent="1" source="2" target="14">
                    <mxGeometry relative="1" as="geometry"/>
                </mxCell>
                <mxCell id="30" style="edgeStyle=orthogonalEdgeStyle;html=1;entryX=0;entryY=0.5;entryDx=0;entryDy=0;endArrow=block;endFill=0;fillColor=#fad9d5;strokeColor=#ae4132;" edge="1" parent="1" source="2" target="13">
                    <mxGeometry relative="1" as="geometry">
                        <Array as="points">
                            <mxPoint x="240" y="-80"/>
                            <mxPoint x="240" y="275"/>
                        </Array>
                    </mxGeometry>
                </mxCell>
                <mxCell id="34" style="edgeStyle=orthogonalEdgeStyle;html=1;entryX=0;entryY=0.5;entryDx=0;entryDy=0;endArrow=block;endFill=0;fillColor=#fad9d5;strokeColor=#ae4132;" edge="1" parent="1" source="2" target="20">
                    <mxGeometry relative="1" as="geometry">
                        <Array as="points">
                            <mxPoint x="240" y="-80"/>
                            <mxPoint x="240" y="215"/>
                        </Array>
                    </mxGeometry>
                </mxCell>
                <mxCell id="2" value="Administrator" style="shape=umlActor;verticalLabelPosition=bottom;verticalAlign=top;html=1;outlineConnect=0;fillColor=#fad9d5;strokeColor=#ae4132;" vertex="1" parent="1">
                    <mxGeometry x="70" y="-110" width="30" height="60" as="geometry"/>
                </mxCell>
                <mxCell id="15" style="html=1;entryX=0;entryY=0.5;entryDx=0;entryDy=0;endArrow=block;endFill=0;fillColor=#fad7ac;strokeColor=#b46504;edgeStyle=orthogonalEdgeStyle;" edge="1" parent="1" source="3" target="11">
                    <mxGeometry relative="1" as="geometry">
                        <Array as="points">
                            <mxPoint x="200" y="350"/>
                            <mxPoint x="200" y="444"/>
                        </Array>
                    </mxGeometry>
                </mxCell>
                <mxCell id="31" style="edgeStyle=orthogonalEdgeStyle;html=1;entryX=0;entryY=0.5;entryDx=0;entryDy=0;endArrow=block;endFill=0;fillColor=#fad7ac;strokeColor=#b46504;" edge="1" parent="1" source="3" target="13">
                    <mxGeometry relative="1" as="geometry">
                        <Array as="points">
                            <mxPoint x="200" y="350"/>
                            <mxPoint x="200" y="300"/>
                            <mxPoint x="400" y="300"/>
                        </Array>
                    </mxGeometry>
                </mxCell>
                <mxCell id="33" style="edgeStyle=orthogonalEdgeStyle;html=1;entryX=0;entryY=0.5;entryDx=0;entryDy=0;endArrow=block;endFill=0;fillColor=#fad7ac;strokeColor=#b46504;" edge="1" parent="1" source="3" target="32">
                    <mxGeometry relative="1" as="geometry">
                        <Array as="points">
                            <mxPoint x="200" y="350"/>
                            <mxPoint x="200" y="335"/>
                        </Array>
                    </mxGeometry>
                </mxCell>
                <mxCell id="37" style="edgeStyle=orthogonalEdgeStyle;html=1;endArrow=block;endFill=0;fillColor=#fad7ac;strokeColor=#b46504;" edge="1" parent="1" source="3" target="36">
                    <mxGeometry relative="1" as="geometry">
                        <Array as="points">
                            <mxPoint x="200" y="350"/>
                            <mxPoint x="200" y="389"/>
                        </Array>
                    </mxGeometry>
                </mxCell>
                <mxCell id="45" style="edgeStyle=orthogonalEdgeStyle;html=1;entryX=0;entryY=0.5;entryDx=0;entryDy=0;endArrow=block;endFill=0;fillColor=#fad7ac;strokeColor=#b46504;" edge="1" parent="1" source="3" target="41">
                    <mxGeometry relative="1" as="geometry">
                        <Array as="points">
                            <mxPoint x="200" y="350"/>
                            <mxPoint x="200" y="540"/>
                            <mxPoint x="400" y="540"/>
                        </Array>
                    </mxGeometry>
                </mxCell>
                <mxCell id="55" style="edgeStyle=orthogonalEdgeStyle;html=1;entryX=0;entryY=0.5;entryDx=0;entryDy=0;endArrow=block;endFill=0;fillColor=#fad7ac;strokeColor=#b46504;" edge="1" parent="1" source="3" target="54">
                    <mxGeometry relative="1" as="geometry">
                        <Array as="points">
                            <mxPoint x="200" y="350"/>
                            <mxPoint x="200" y="505"/>
                        </Array>
                    </mxGeometry>
                </mxCell>
                <mxCell id="3" value="Employee" style="shape=umlActor;verticalLabelPosition=bottom;verticalAlign=top;html=1;outlineConnect=0;fillColor=#fad7ac;strokeColor=#b46504;" vertex="1" parent="1">
                    <mxGeometry x="70" y="320" width="30" height="60" as="geometry"/>
                </mxCell>
                <mxCell id="17" style="edgeStyle=orthogonalEdgeStyle;html=1;entryX=0;entryY=0.5;entryDx=0;entryDy=0;endArrow=block;endFill=0;fillColor=#b0e3e6;strokeColor=#0e8088;" edge="1" parent="1" source="5" target="11">
                    <mxGeometry relative="1" as="geometry">
                        <Array as="points">
                            <mxPoint x="290" y="570"/>
                            <mxPoint x="290" y="470"/>
                            <mxPoint x="400" y="470"/>
                        </Array>
                    </mxGeometry>
                </mxCell>
                <mxCell id="39" style="edgeStyle=orthogonalEdgeStyle;html=1;entryX=0;entryY=0.5;entryDx=0;entryDy=0;endArrow=block;endFill=0;fillColor=#b0e3e6;strokeColor=#0e8088;" edge="1" parent="1" source="5" target="18">
                    <mxGeometry relative="1" as="geometry">
                        <Array as="points">
                            <mxPoint x="290" y="570"/>
                            <mxPoint x="290" y="180"/>
                            <mxPoint x="390" y="180"/>
                        </Array>
                    </mxGeometry>
                </mxCell>
                <mxCell id="40" style="edgeStyle=orthogonalEdgeStyle;html=1;entryX=0;entryY=0.5;entryDx=0;entryDy=0;endArrow=block;endFill=0;fillColor=#b0e3e6;strokeColor=#0e8088;" edge="1" parent="1" source="5" target="38">
                    <mxGeometry relative="1" as="geometry">
                        <Array as="points">
                            <mxPoint x="290" y="570"/>
                            <mxPoint x="290" y="626"/>
                        </Array>
                    </mxGeometry>
                </mxCell>
                <mxCell id="42" style="edgeStyle=orthogonalEdgeStyle;html=1;entryX=0;entryY=0.5;entryDx=0;entryDy=0;endArrow=block;endFill=0;fillColor=#b0e3e6;strokeColor=#0e8088;" edge="1" parent="1" source="5" target="41">
                    <mxGeometry relative="1" as="geometry">
                        <Array as="points">
                            <mxPoint x="290" y="570"/>
                            <mxPoint x="290" y="568"/>
                        </Array>
                    </mxGeometry>
                </mxCell>
                <mxCell id="44" style="edgeStyle=orthogonalEdgeStyle;html=1;entryX=0;entryY=0.5;entryDx=0;entryDy=0;endArrow=block;endFill=0;fillColor=#b0e3e6;strokeColor=#0e8088;" edge="1" parent="1" target="43">
                    <mxGeometry relative="1" as="geometry">
                        <mxPoint x="100" y="570" as="sourcePoint"/>
                        <Array as="points">
                            <mxPoint x="290" y="570"/>
                            <mxPoint x="290" y="682"/>
                        </Array>
                    </mxGeometry>
                </mxCell>
                <mxCell id="47" style="edgeStyle=orthogonalEdgeStyle;html=1;entryX=0;entryY=0.5;entryDx=0;entryDy=0;endArrow=block;endFill=0;fillColor=#b0e3e6;strokeColor=#0e8088;" edge="1" parent="1" source="5" target="46">
                    <mxGeometry relative="1" as="geometry">
                        <Array as="points">
                            <mxPoint x="290" y="570"/>
                            <mxPoint x="290" y="708"/>
                            <mxPoint x="370" y="708"/>
                            <mxPoint x="370" y="738"/>
                        </Array>
                    </mxGeometry>
                </mxCell>
                <mxCell id="5" value="Veterinarian" style="shape=umlActor;verticalLabelPosition=bottom;verticalAlign=top;html=1;outlineConnect=0;fillColor=#b0e3e6;strokeColor=#0e8088;" vertex="1" parent="1">
                    <mxGeometry x="70" y="540" width="30" height="60" as="geometry"/>
                </mxCell>
                <mxCell id="49" style="edgeStyle=orthogonalEdgeStyle;html=1;endArrow=block;endFill=0;fillColor=#d0cee2;strokeColor=#56517e;entryX=0;entryY=0.5;entryDx=0;entryDy=0;" edge="1" parent="1" source="6" target="48">
                    <mxGeometry relative="1" as="geometry">
                        <Array as="points">
                            <mxPoint x="360" y="830"/>
                            <mxPoint x="360" y="806"/>
                        </Array>
                    </mxGeometry>
                </mxCell>
                <mxCell id="51" style="edgeStyle=orthogonalEdgeStyle;html=1;endArrow=block;endFill=0;fillColor=#d0cee2;strokeColor=#56517e;entryX=0;entryY=0.5;entryDx=0;entryDy=0;" edge="1" parent="1" source="6" target="50">
                    <mxGeometry relative="1" as="geometry">
                        <Array as="points">
                            <mxPoint x="360" y="830"/>
                            <mxPoint x="360" y="862"/>
                        </Array>
                    </mxGeometry>
                </mxCell>
                <mxCell id="53" style="edgeStyle=orthogonalEdgeStyle;html=1;entryX=0;entryY=0.5;entryDx=0;entryDy=0;endArrow=block;endFill=0;fillColor=#d0cee2;strokeColor=#56517e;" edge="1" parent="1" source="6" target="52">
                    <mxGeometry relative="1" as="geometry">
                        <Array as="points">
                            <mxPoint x="360" y="830"/>
                            <mxPoint x="360" y="918"/>
                        </Array>
                    </mxGeometry>
                </mxCell>
                <mxCell id="73" style="edgeStyle=orthogonalEdgeStyle;html=1;entryX=0;entryY=0.5;entryDx=0;entryDy=0;fontColor=#FFFF00;endArrow=block;endFill=0;fillColor=#d0cee2;strokeColor=#56517e;" edge="1" parent="1" source="6" target="72">
                    <mxGeometry relative="1" as="geometry">
                        <Array as="points">
                            <mxPoint x="360" y="830"/>
                            <mxPoint x="360" y="978"/>
                        </Array>
                    </mxGeometry>
                </mxCell>
                <mxCell id="6" value="Visitor" style="shape=umlActor;verticalLabelPosition=bottom;verticalAlign=top;html=1;outlineConnect=0;fillColor=#d0cee2;strokeColor=#56517e;" vertex="1" parent="1">
                    <mxGeometry x="70" y="800" width="30" height="60" as="geometry"/>
                </mxCell>
                <mxCell id="11" value="Connexion" style="ellipse;" vertex="1" parent="1">
                    <mxGeometry x="400" y="419" width="120" height="50" as="geometry"/>
                </mxCell>
                <mxCell id="12" value="Create accounts" style="ellipse;" vertex="1" parent="1">
                    <mxGeometry x="400" y="70" width="120" height="50" as="geometry"/>
                </mxCell>
                <mxCell id="13" value="Modify Services" style="ellipse;" vertex="1" parent="1">
                    <mxGeometry x="400" y="250" width="120" height="50" as="geometry"/>
                </mxCell>
                <mxCell id="14" value="Modify Business&#10;Hours" style="ellipse;" vertex="1" parent="1">
                    <mxGeometry x="400" y="-50" width="120" height="50" as="geometry"/>
                </mxCell>
                <mxCell id="18" value="Consult Veterinarians&#10;Reports" style="ellipse;" vertex="1" parent="1">
                    <mxGeometry x="390" y="130" width="140" height="50" as="geometry"/>
                </mxCell>
                <mxCell id="19" value="Modify Zoo&#10;Animals" style="ellipse;" vertex="1" parent="1">
                    <mxGeometry x="400" y="10" width="120" height="50" as="geometry"/>
                </mxCell>
                <mxCell id="20" value="Consult Animals&#10;Popularity" style="ellipse;" vertex="1" parent="1">
                    <mxGeometry x="400" y="190" width="120" height="50" as="geometry"/>
                </mxCell>
                <mxCell id="22" value="Modify Zoo&#10;Habitats" style="ellipse;" vertex="1" parent="1">
                    <mxGeometry x="400" y="-105" width="120" height="50" as="geometry"/>
                </mxCell>
                <mxCell id="32" value="Validate/Invalidate&#10;Reviews" style="ellipse;" vertex="1" parent="1">
                    <mxGeometry x="400" y="310" width="120" height="50" as="geometry"/>
                </mxCell>
                <mxCell id="36" value="Add animal's&#10;food consumption" style="ellipse;" vertex="1" parent="1">
                    <mxGeometry x="400" y="364" width="120" height="50" as="geometry"/>
                </mxCell>
                <mxCell id="38" value="Write Veterinarian&#10;Reports" style="ellipse;" vertex="1" parent="1">
                    <mxGeometry x="400" y="598" width="120" height="56" as="geometry"/>
                </mxCell>
                <mxCell id="41" value="Consult Animal's&#10;Food consumption" style="ellipse;" vertex="1" parent="1">
                    <mxGeometry x="400" y="540" width="120" height="56" as="geometry"/>
                </mxCell>
                <mxCell id="43" value="Write a habitat's&#10;Comment" style="ellipse;" vertex="1" parent="1">
                    <mxGeometry x="400" y="654" width="120" height="56" as="geometry"/>
                </mxCell>
                <mxCell id="46" value="Give a state to the&#10;Animals" style="ellipse;" vertex="1" parent="1">
                    <mxGeometry x="400" y="710" width="120" height="56" as="geometry"/>
                </mxCell>
                <mxCell id="48" value="Contact the&#10;Zoo" style="ellipse;" vertex="1" parent="1">
                    <mxGeometry x="400" y="778" width="120" height="56" as="geometry"/>
                </mxCell>
                <mxCell id="50" value="Post a Zoo review" style="ellipse;" vertex="1" parent="1">
                    <mxGeometry x="400" y="834" width="120" height="56" as="geometry"/>
                </mxCell>
                <mxCell id="52" value="Consult Zoo Animals" style="ellipse;" vertex="1" parent="1">
                    <mxGeometry x="400" y="890" width="120" height="56" as="geometry"/>
                </mxCell>
                <mxCell id="54" value="Answer Visitor's&#10;Contact Inquiries" style="ellipse;" vertex="1" parent="1">
                    <mxGeometry x="400" y="480" width="120" height="50" as="geometry"/>
                </mxCell>
                <mxCell id="57" value="&amp;lt;&amp;lt;include&amp;gt;&amp;gt;" style="html=1;verticalAlign=bottom;labelBackgroundColor=none;endArrow=open;endFill=0;dashed=1;exitX=1;exitY=0.5;exitDx=0;exitDy=0;entryX=1;entryY=0.5;entryDx=0;entryDy=0;edgeStyle=orthogonalEdgeStyle;" edge="1" parent="1" source="22" target="11">
                    <mxGeometry width="160" relative="1" as="geometry">
                        <mxPoint x="590" y="-30" as="sourcePoint"/>
                        <mxPoint x="750" y="-30" as="targetPoint"/>
                        <Array as="points">
                            <mxPoint x="570" y="-80"/>
                            <mxPoint x="570" y="444"/>
                        </Array>
                    </mxGeometry>
                </mxCell>
                <mxCell id="58" value="" style="html=1;verticalAlign=bottom;labelBackgroundColor=none;endArrow=none;endFill=0;dashed=1;exitX=1;exitY=0.5;exitDx=0;exitDy=0;" edge="1" parent="1" source="14">
                    <mxGeometry width="160" relative="1" as="geometry">
                        <mxPoint x="480" y="80" as="sourcePoint"/>
                        <mxPoint x="570" y="-25" as="targetPoint"/>
                    </mxGeometry>
                </mxCell>
                <mxCell id="59" value="" style="html=1;verticalAlign=bottom;labelBackgroundColor=none;endArrow=none;endFill=0;dashed=1;exitX=1;exitY=0.5;exitDx=0;exitDy=0;" edge="1" parent="1">
                    <mxGeometry width="160" relative="1" as="geometry">
                        <mxPoint x="520" y="34.6" as="sourcePoint"/>
                        <mxPoint x="570" y="34.6" as="targetPoint"/>
                    </mxGeometry>
                </mxCell>
                <mxCell id="60" value="" style="html=1;verticalAlign=bottom;labelBackgroundColor=none;endArrow=none;endFill=0;dashed=1;exitX=1;exitY=0.5;exitDx=0;exitDy=0;" edge="1" parent="1">
                    <mxGeometry width="160" relative="1" as="geometry">
                        <mxPoint x="520" y="94.6" as="sourcePoint"/>
                        <mxPoint x="570" y="94.6" as="targetPoint"/>
                    </mxGeometry>
                </mxCell>
                <mxCell id="61" value="" style="html=1;verticalAlign=bottom;labelBackgroundColor=none;endArrow=none;endFill=0;dashed=1;exitX=1;exitY=0.5;exitDx=0;exitDy=0;" edge="1" parent="1">
                    <mxGeometry width="160" relative="1" as="geometry">
                        <mxPoint x="530" y="154.6" as="sourcePoint"/>
                        <mxPoint x="570" y="155" as="targetPoint"/>
                    </mxGeometry>
                </mxCell>
                <mxCell id="62" value="" style="html=1;verticalAlign=bottom;labelBackgroundColor=none;endArrow=none;endFill=0;dashed=1;exitX=1;exitY=0.5;exitDx=0;exitDy=0;" edge="1" parent="1">
                    <mxGeometry width="160" relative="1" as="geometry">
                        <mxPoint x="520" y="214.6599999999999" as="sourcePoint"/>
                        <mxPoint x="570" y="215" as="targetPoint"/>
                    </mxGeometry>
                </mxCell>
                <mxCell id="63" value="" style="html=1;verticalAlign=bottom;labelBackgroundColor=none;endArrow=none;endFill=0;dashed=1;exitX=1;exitY=0.5;exitDx=0;exitDy=0;" edge="1" parent="1">
                    <mxGeometry width="160" relative="1" as="geometry">
                        <mxPoint x="520" y="274.65999999999985" as="sourcePoint"/>
                        <mxPoint x="570" y="275" as="targetPoint"/>
                    </mxGeometry>
                </mxCell>
                <mxCell id="64" value="" style="html=1;verticalAlign=bottom;labelBackgroundColor=none;endArrow=none;endFill=0;dashed=1;exitX=1;exitY=0.5;exitDx=0;exitDy=0;" edge="1" parent="1">
                    <mxGeometry width="160" relative="1" as="geometry">
                        <mxPoint x="520" y="334.65999999999985" as="sourcePoint"/>
                        <mxPoint x="570" y="335" as="targetPoint"/>
                    </mxGeometry>
                </mxCell>
                <mxCell id="65" value="" style="html=1;verticalAlign=bottom;labelBackgroundColor=none;endArrow=none;endFill=0;dashed=1;exitX=1;exitY=0.5;exitDx=0;exitDy=0;" edge="1" parent="1">
                    <mxGeometry width="160" relative="1" as="geometry">
                        <mxPoint x="520" y="388.65999999999985" as="sourcePoint"/>
                        <mxPoint x="570" y="389" as="targetPoint"/>
                    </mxGeometry>
                </mxCell>
                <mxCell id="66" value="" style="html=1;verticalAlign=bottom;labelBackgroundColor=none;endArrow=none;endFill=0;dashed=1;exitX=1;exitY=0.5;exitDx=0;exitDy=0;edgeStyle=orthogonalEdgeStyle;" edge="1" parent="1">
                    <mxGeometry width="160" relative="1" as="geometry">
                        <mxPoint x="520" y="504.65999999999985" as="sourcePoint"/>
                        <mxPoint x="570" y="440" as="targetPoint"/>
                    </mxGeometry>
                </mxCell>
                <mxCell id="67" value="" style="html=1;verticalAlign=bottom;labelBackgroundColor=none;endArrow=none;endFill=0;dashed=1;exitX=1;exitY=0.5;exitDx=0;exitDy=0;edgeStyle=orthogonalEdgeStyle;" edge="1" parent="1">
                    <mxGeometry width="160" relative="1" as="geometry">
                        <mxPoint x="520" y="564.6600000000001" as="sourcePoint"/>
                        <mxPoint x="570" y="500" as="targetPoint"/>
                    </mxGeometry>
                </mxCell>
                <mxCell id="68" value="" style="html=1;verticalAlign=bottom;labelBackgroundColor=none;endArrow=none;endFill=0;dashed=1;exitX=1;exitY=0.5;exitDx=0;exitDy=0;edgeStyle=orthogonalEdgeStyle;" edge="1" parent="1">
                    <mxGeometry width="160" relative="1" as="geometry">
                        <mxPoint x="520" y="624.6600000000001" as="sourcePoint"/>
                        <mxPoint x="570" y="560" as="targetPoint"/>
                    </mxGeometry>
                </mxCell>
                <mxCell id="69" value="" style="html=1;verticalAlign=bottom;labelBackgroundColor=none;endArrow=none;endFill=0;dashed=1;exitX=1;exitY=0.5;exitDx=0;exitDy=0;edgeStyle=orthogonalEdgeStyle;" edge="1" parent="1">
                    <mxGeometry width="160" relative="1" as="geometry">
                        <mxPoint x="520" y="684.6600000000001" as="sourcePoint"/>
                        <mxPoint x="570" y="620" as="targetPoint"/>
                    </mxGeometry>
                </mxCell>
                <mxCell id="70" value="" style="html=1;verticalAlign=bottom;labelBackgroundColor=none;endArrow=none;endFill=0;dashed=1;exitX=1;exitY=0.5;exitDx=0;exitDy=0;edgeStyle=orthogonalEdgeStyle;" edge="1" parent="1">
                    <mxGeometry width="160" relative="1" as="geometry">
                        <mxPoint x="520" y="744.6600000000001" as="sourcePoint"/>
                        <mxPoint x="570" y="680" as="targetPoint"/>
                    </mxGeometry>
                </mxCell>
                <mxCell id="71" value="&lt;font color=&quot;#ffff00&quot;&gt;&amp;lt;&amp;lt;extend&amp;gt;&amp;gt;&lt;/font&gt;" style="html=1;verticalAlign=bottom;labelBackgroundColor=none;endArrow=open;endFill=0;dashed=1;exitX=1;exitY=1;exitDx=0;exitDy=0;entryX=1;entryY=1;entryDx=0;entryDy=0;edgeStyle=orthogonalEdgeStyle;fillColor=#fff2cc;gradientColor=#ffd966;strokeColor=#d6b656;" edge="1" parent="1" source="38" target="46">
                    <mxGeometry width="160" relative="1" as="geometry">
                        <mxPoint x="550" y="640" as="sourcePoint"/>
                        <mxPoint x="710" y="640" as="targetPoint"/>
                        <Array as="points">
                            <mxPoint x="680" y="646"/>
                            <mxPoint x="680" y="780"/>
                            <mxPoint x="503" y="780"/>
                        </Array>
                    </mxGeometry>
                </mxCell>
                <mxCell id="72" value="Consult Zoo Habitats" style="ellipse;" vertex="1" parent="1">
                    <mxGeometry x="400" y="950" width="120" height="56" as="geometry"/>
                </mxCell>
                <mxCell id="75" value="&amp;lt;&amp;lt;extend&amp;gt;&amp;gt;" style="html=1;verticalAlign=bottom;labelBackgroundColor=none;endArrow=open;endFill=0;dashed=1;fontColor=#FFFF00;exitX=1;exitY=0.5;exitDx=0;exitDy=0;entryX=1;entryY=0.5;entryDx=0;entryDy=0;edgeStyle=orthogonalEdgeStyle;fillColor=#fff2cc;gradientColor=#ffd966;strokeColor=#d6b656;" edge="1" parent="1" source="72" target="52">
                    <mxGeometry width="160" relative="1" as="geometry">
                        <mxPoint x="540" y="977.6" as="sourcePoint"/>
                        <mxPoint x="700" y="977.6" as="targetPoint"/>
                        <Array as="points">
                            <mxPoint x="680" y="978"/>
                            <mxPoint x="680" y="918"/>
                        </Array>
                    </mxGeometry>
                </mxCell>
            </root>
        </mxGraphModel>
    </diagram>
</mxfile>